<svg xmlns="http://www.w3.org/2000/svg" xmlns:xlink="http://www.w3.org/1999/xlink" width="500" zoomAndPan="magnify" viewBox="0 0 375 374.999991" height="500" preserveAspectRatio="xMidYMid meet" version="1.0"><defs><clipPath id="41f6d6ae41"><path d="M 14.660156 14.660156 L 360.410156 14.660156 L 360.410156 360.410156 L 14.660156 360.410156 Z M 14.660156 14.660156 " clip-rule="nonzero"/></clipPath><clipPath id="72de9df78c"><path d="M 360.410156 187.535156 C 360.410156 190.363281 360.339844 193.191406 360.203125 196.019531 C 360.0625 198.84375 359.855469 201.664062 359.578125 204.480469 C 359.300781 207.296875 358.953125 210.101562 358.539062 212.902344 C 358.125 215.699219 357.640625 218.488281 357.089844 221.261719 C 356.535156 224.035156 355.917969 226.796875 355.230469 229.539062 C 354.542969 232.285156 353.789062 235.011719 352.964844 237.71875 C 352.144531 240.425781 351.257812 243.109375 350.304688 245.773438 C 349.351562 248.4375 348.332031 251.078125 347.25 253.691406 C 346.167969 256.304688 345.023438 258.890625 343.8125 261.449219 C 342.601562 264.007812 341.332031 266.53125 339.996094 269.027344 C 338.664062 271.523438 337.269531 273.984375 335.816406 276.410156 C 334.359375 278.835938 332.847656 281.226562 331.277344 283.578125 C 329.703125 285.933594 328.074219 288.246094 326.390625 290.515625 C 324.703125 292.789062 322.964844 295.019531 321.167969 297.207031 C 319.375 299.394531 317.527344 301.535156 315.628906 303.632812 C 313.726562 305.726562 311.777344 307.777344 309.777344 309.777344 C 307.777344 311.777344 305.726562 313.726562 303.632812 315.628906 C 301.535156 317.527344 299.394531 319.375 297.207031 321.167969 C 295.019531 322.964844 292.789062 324.703125 290.515625 326.390625 C 288.246094 328.074219 285.933594 329.703125 283.578125 331.277344 C 281.226562 332.847656 278.835938 334.359375 276.410156 335.816406 C 273.984375 337.269531 271.523438 338.664062 269.027344 339.996094 C 266.53125 341.332031 264.007812 342.601562 261.449219 343.8125 C 258.890625 345.023438 256.304688 346.167969 253.691406 347.25 C 251.078125 348.332031 248.4375 349.351562 245.773438 350.304688 C 243.109375 351.257812 240.425781 352.144531 237.71875 352.964844 C 235.011719 353.789062 232.285156 354.542969 229.539062 355.230469 C 226.796875 355.917969 224.035156 356.535156 221.261719 357.089844 C 218.488281 357.640625 215.699219 358.125 212.902344 358.539062 C 210.101562 358.953125 207.296875 359.300781 204.480469 359.578125 C 201.664062 359.855469 198.84375 360.0625 196.019531 360.203125 C 193.191406 360.339844 190.363281 360.410156 187.535156 360.410156 C 184.707031 360.410156 181.878906 360.339844 179.050781 360.203125 C 176.226562 360.0625 173.40625 359.855469 170.589844 359.578125 C 167.773438 359.300781 164.96875 358.953125 162.167969 358.539062 C 159.371094 358.125 156.582031 357.640625 153.808594 357.089844 C 151.035156 356.535156 148.273438 355.917969 145.53125 355.230469 C 142.785156 354.542969 140.058594 353.789062 137.351562 352.964844 C 134.644531 352.144531 131.960938 351.257812 129.296875 350.304688 C 126.632812 349.351562 123.992188 348.332031 121.378906 347.25 C 118.765625 346.167969 116.179688 345.023438 113.621094 343.8125 C 111.0625 342.601562 108.539062 341.332031 106.042969 339.996094 C 103.546875 338.664062 101.085938 337.269531 98.660156 335.816406 C 96.234375 334.359375 93.84375 332.847656 91.492188 331.277344 C 89.136719 329.703125 86.824219 328.074219 84.554688 326.390625 C 82.28125 324.703125 80.050781 322.964844 77.863281 321.167969 C 75.675781 319.375 73.535156 317.527344 71.441406 315.628906 C 69.34375 313.726562 67.292969 311.777344 65.292969 309.777344 C 63.292969 307.777344 61.34375 305.726562 59.441406 303.632812 C 57.542969 301.535156 55.695312 299.394531 53.902344 297.207031 C 52.105469 295.019531 50.367188 292.789062 48.679688 290.515625 C 46.996094 288.246094 45.367188 285.933594 43.796875 283.578125 C 42.222656 281.226562 40.710938 278.835938 39.253906 276.410156 C 37.800781 273.984375 36.40625 271.523438 35.074219 269.027344 C 33.738281 266.53125 32.46875 264.007812 31.257812 261.449219 C 30.046875 258.890625 28.902344 256.304688 27.820312 253.691406 C 26.738281 251.078125 25.71875 248.4375 24.765625 245.773438 C 23.8125 243.109375 22.925781 240.425781 22.105469 237.71875 C 21.28125 235.011719 20.527344 232.285156 19.839844 229.539062 C 19.152344 226.796875 18.535156 224.035156 17.980469 221.261719 C 17.429688 218.488281 16.945312 215.699219 16.53125 212.902344 C 16.117188 210.101562 15.769531 207.296875 15.492188 204.480469 C 15.214844 201.664062 15.007812 198.84375 14.867188 196.019531 C 14.730469 193.191406 14.660156 190.363281 14.660156 187.535156 C 14.660156 184.707031 14.730469 181.878906 14.867188 179.050781 C 15.007812 176.226562 15.214844 173.40625 15.492188 170.589844 C 15.769531 167.773438 16.117188 164.96875 16.53125 162.167969 C 16.945312 159.371094 17.429688 156.582031 17.980469 153.808594 C 18.535156 151.035156 19.152344 148.273438 19.839844 145.53125 C 20.527344 142.785156 21.28125 140.058594 22.105469 137.351562 C 22.925781 134.644531 23.8125 131.960938 24.765625 129.296875 C 25.71875 126.632812 26.738281 123.992188 27.820312 121.378906 C 28.902344 118.765625 30.046875 116.179688 31.257812 113.621094 C 32.46875 111.0625 33.738281 108.539062 35.074219 106.042969 C 36.40625 103.546875 37.800781 101.085938 39.253906 98.660156 C 40.710938 96.234375 42.222656 93.84375 43.796875 91.492188 C 45.367188 89.136719 46.996094 86.828125 48.679688 84.554688 C 50.367188 82.28125 52.105469 80.050781 53.902344 77.863281 C 55.695312 75.675781 57.542969 73.535156 59.441406 71.441406 C 61.34375 69.34375 63.292969 67.292969 65.292969 65.292969 C 67.292969 63.292969 69.34375 61.34375 71.441406 59.441406 C 73.535156 57.542969 75.675781 55.695312 77.863281 53.902344 C 80.050781 52.105469 82.28125 50.367188 84.554688 48.679688 C 86.824219 46.996094 89.136719 45.367188 91.492188 43.796875 C 93.84375 42.222656 96.234375 40.710938 98.660156 39.253906 C 101.085938 37.800781 103.546875 36.40625 106.042969 35.074219 C 108.539062 33.738281 111.0625 32.46875 113.621094 31.257812 C 116.179688 30.046875 118.765625 28.902344 121.378906 27.820312 C 123.992188 26.738281 126.632812 25.71875 129.296875 24.765625 C 131.960938 23.8125 134.644531 22.925781 137.351562 22.105469 C 140.058594 21.28125 142.785156 20.527344 145.53125 19.839844 C 148.273438 19.152344 151.035156 18.535156 153.808594 17.980469 C 156.582031 17.429688 159.371094 16.945312 162.167969 16.53125 C 164.96875 16.117188 167.773438 15.769531 170.589844 15.492188 C 173.40625 15.214844 176.226562 15.007812 179.050781 14.867188 C 181.878906 14.730469 184.707031 14.660156 187.535156 14.660156 C 190.363281 14.660156 193.191406 14.730469 196.019531 14.867188 C 198.84375 15.007812 201.664062 15.214844 204.480469 15.492188 C 207.296875 15.769531 210.101562 16.117188 212.902344 16.53125 C 215.699219 16.945312 218.488281 17.429688 221.261719 17.980469 C 224.035156 18.535156 226.796875 19.152344 229.539062 19.839844 C 232.285156 20.527344 235.011719 21.28125 237.71875 22.105469 C 240.425781 22.925781 243.109375 23.8125 245.773438 24.765625 C 248.4375 25.71875 251.078125 26.738281 253.691406 27.820312 C 256.304688 28.902344 258.890625 30.046875 261.449219 31.257812 C 264.007812 32.46875 266.53125 33.738281 269.027344 35.074219 C 271.523438 36.40625 273.984375 37.800781 276.410156 39.253906 C 278.835938 40.710938 281.226562 42.222656 283.578125 43.796875 C 285.933594 45.367188 288.246094 46.996094 290.515625 48.679688 C 292.789062 50.367188 295.019531 52.105469 297.207031 53.902344 C 299.394531 55.695312 301.535156 57.542969 303.632812 59.441406 C 305.726562 61.34375 307.777344 63.292969 309.777344 65.292969 C 311.777344 67.292969 313.726562 69.34375 315.628906 71.441406 C 317.527344 73.535156 319.375 75.675781 321.167969 77.863281 C 322.964844 80.050781 324.703125 82.28125 326.390625 84.554688 C 328.074219 86.828125 329.703125 89.136719 331.277344 91.492188 C 332.847656 93.84375 334.359375 96.234375 335.816406 98.660156 C 337.269531 101.085938 338.664062 103.546875 339.996094 106.042969 C 341.332031 108.539062 342.601562 111.0625 343.8125 113.621094 C 345.023438 116.179688 346.167969 118.765625 347.25 121.378906 C 348.332031 123.992188 349.351562 126.632812 350.304688 129.296875 C 351.257812 131.960938 352.144531 134.644531 352.964844 137.351562 C 353.789062 140.058594 354.542969 142.785156 355.230469 145.53125 C 355.917969 148.273438 356.535156 151.035156 357.089844 153.808594 C 357.640625 156.582031 358.125 159.371094 358.539062 162.167969 C 358.953125 164.96875 359.300781 167.773438 359.578125 170.589844 C 359.855469 173.40625 360.0625 176.226562 360.203125 179.050781 C 360.339844 181.878906 360.410156 184.707031 360.410156 187.535156 Z M 360.410156 187.535156 " clip-rule="nonzero"/></clipPath><linearGradient x1="-0.0000000105909" gradientTransform="matrix(345.749962, 0, 0, 345.749962, 14.660239, 14.66028)" y1="-0.0000000104871" x2="1.004902" gradientUnits="userSpaceOnUse" y2="0.995049" id="07a51b695a"><stop stop-opacity="1" stop-color="rgb(0%, 76.899719%, 79.998779%)" offset="0"/><stop stop-opacity="1" stop-color="rgb(0.186157%, 76.66626%, 80.041504%)" offset="0.00390625"/><stop stop-opacity="1" stop-color="rgb(0.37384%, 76.4328%, 80.084229%)" offset="0.0078125"/><stop stop-opacity="1" stop-color="rgb(0.561523%, 76.199341%, 80.126953%)" offset="0.0117187"/><stop stop-opacity="1" stop-color="rgb(0.749207%, 75.965881%, 80.169678%)" offset="0.015625"/><stop stop-opacity="1" stop-color="rgb(0.93689%, 75.732422%, 80.210876%)" offset="0.0195312"/><stop stop-opacity="1" stop-color="rgb(1.124573%, 75.500488%, 80.253601%)" offset="0.0234375"/><stop stop-opacity="1" stop-color="rgb(1.312256%, 75.267029%, 80.296326%)" offset="0.0273437"/><stop stop-opacity="1" stop-color="rgb(1.499939%, 75.033569%, 80.33905%)" offset="0.03125"/><stop stop-opacity="1" stop-color="rgb(1.687622%, 74.80011%, 80.381775%)" offset="0.0351562"/><stop stop-opacity="1" stop-color="rgb(1.875305%, 74.568176%, 80.4245%)" offset="0.0390625"/><stop stop-opacity="1" stop-color="rgb(2.062988%, 74.334717%, 80.465698%)" offset="0.0429688"/><stop stop-opacity="1" stop-color="rgb(2.250671%, 74.101257%, 80.508423%)" offset="0.046875"/><stop stop-opacity="1" stop-color="rgb(2.438354%, 73.867798%, 80.551147%)" offset="0.0507812"/><stop stop-opacity="1" stop-color="rgb(2.626038%, 73.634338%, 80.593872%)" offset="0.0546875"/><stop stop-opacity="1" stop-color="rgb(2.813721%, 73.400879%, 80.636597%)" offset="0.0585938"/><stop stop-opacity="1" stop-color="rgb(3.001404%, 73.168945%, 80.679321%)" offset="0.0625"/><stop stop-opacity="1" stop-color="rgb(3.189087%, 72.935486%, 80.72052%)" offset="0.0664062"/><stop stop-opacity="1" stop-color="rgb(3.37677%, 72.702026%, 80.763245%)" offset="0.0703125"/><stop stop-opacity="1" stop-color="rgb(3.562927%, 72.468567%, 80.805969%)" offset="0.0742187"/><stop stop-opacity="1" stop-color="rgb(3.75061%, 72.236633%, 80.848694%)" offset="0.078125"/><stop stop-opacity="1" stop-color="rgb(3.938293%, 72.003174%, 80.891418%)" offset="0.0820312"/><stop stop-opacity="1" stop-color="rgb(4.125977%, 71.769714%, 80.934143%)" offset="0.0859375"/><stop stop-opacity="1" stop-color="rgb(4.31366%, 71.536255%, 80.975342%)" offset="0.0898437"/><stop stop-opacity="1" stop-color="rgb(4.501343%, 71.302795%, 81.018066%)" offset="0.09375"/><stop stop-opacity="1" stop-color="rgb(4.689026%, 71.069336%, 81.060791%)" offset="0.0976562"/><stop stop-opacity="1" stop-color="rgb(4.876709%, 70.837402%, 81.103516%)" offset="0.101562"/><stop stop-opacity="1" stop-color="rgb(5.064392%, 70.603943%, 81.144714%)" offset="0.105469"/><stop stop-opacity="1" stop-color="rgb(5.252075%, 70.370483%, 81.187439%)" offset="0.109375"/><stop stop-opacity="1" stop-color="rgb(5.439758%, 70.137024%, 81.230164%)" offset="0.113281"/><stop stop-opacity="1" stop-color="rgb(5.627441%, 69.90509%, 81.272888%)" offset="0.117187"/><stop stop-opacity="1" stop-color="rgb(5.815125%, 69.671631%, 81.315613%)" offset="0.121094"/><stop stop-opacity="1" stop-color="rgb(6.002808%, 69.438171%, 81.358337%)" offset="0.125"/><stop stop-opacity="1" stop-color="rgb(6.190491%, 69.204712%, 81.399536%)" offset="0.128906"/><stop stop-opacity="1" stop-color="rgb(6.378174%, 68.971252%, 81.442261%)" offset="0.132812"/><stop stop-opacity="1" stop-color="rgb(6.565857%, 68.737793%, 81.484985%)" offset="0.136719"/><stop stop-opacity="1" stop-color="rgb(6.75354%, 68.505859%, 81.52771%)" offset="0.140625"/><stop stop-opacity="1" stop-color="rgb(6.941223%, 68.2724%, 81.570435%)" offset="0.144531"/><stop stop-opacity="1" stop-color="rgb(7.128906%, 68.03894%, 81.613159%)" offset="0.148437"/><stop stop-opacity="1" stop-color="rgb(7.315063%, 67.805481%, 81.654358%)" offset="0.152344"/><stop stop-opacity="1" stop-color="rgb(7.502747%, 67.573547%, 81.697083%)" offset="0.15625"/><stop stop-opacity="1" stop-color="rgb(7.69043%, 67.340088%, 81.739807%)" offset="0.160156"/><stop stop-opacity="1" stop-color="rgb(7.878113%, 67.106628%, 81.782532%)" offset="0.164062"/><stop stop-opacity="1" stop-color="rgb(8.065796%, 66.873169%, 81.825256%)" offset="0.167969"/><stop stop-opacity="1" stop-color="rgb(8.253479%, 66.641235%, 81.867981%)" offset="0.171875"/><stop stop-opacity="1" stop-color="rgb(8.441162%, 66.407776%, 81.90918%)" offset="0.175781"/><stop stop-opacity="1" stop-color="rgb(8.628845%, 66.174316%, 81.951904%)" offset="0.179687"/><stop stop-opacity="1" stop-color="rgb(8.816528%, 65.940857%, 81.994629%)" offset="0.183594"/><stop stop-opacity="1" stop-color="rgb(9.004211%, 65.707397%, 82.037354%)" offset="0.1875"/><stop stop-opacity="1" stop-color="rgb(9.191895%, 65.473938%, 82.080078%)" offset="0.191406"/><stop stop-opacity="1" stop-color="rgb(9.379578%, 65.242004%, 82.122803%)" offset="0.195312"/><stop stop-opacity="1" stop-color="rgb(9.567261%, 65.008545%, 82.164001%)" offset="0.199219"/><stop stop-opacity="1" stop-color="rgb(9.754944%, 64.775085%, 82.206726%)" offset="0.203125"/><stop stop-opacity="1" stop-color="rgb(9.942627%, 64.541626%, 82.249451%)" offset="0.207031"/><stop stop-opacity="1" stop-color="rgb(10.13031%, 64.309692%, 82.292175%)" offset="0.210937"/><stop stop-opacity="1" stop-color="rgb(10.317993%, 64.076233%, 82.3349%)" offset="0.214844"/><stop stop-opacity="1" stop-color="rgb(10.505676%, 63.842773%, 82.377625%)" offset="0.21875"/><stop stop-opacity="1" stop-color="rgb(10.691833%, 63.609314%, 82.418823%)" offset="0.222656"/><stop stop-opacity="1" stop-color="rgb(10.879517%, 63.375854%, 82.461548%)" offset="0.226562"/><stop stop-opacity="1" stop-color="rgb(11.0672%, 63.142395%, 82.504272%)" offset="0.230469"/><stop stop-opacity="1" stop-color="rgb(11.254883%, 62.910461%, 82.546997%)" offset="0.234375"/><stop stop-opacity="1" stop-color="rgb(11.442566%, 62.677002%, 82.589722%)" offset="0.238281"/><stop stop-opacity="1" stop-color="rgb(11.630249%, 62.443542%, 82.632446%)" offset="0.242187"/><stop stop-opacity="1" stop-color="rgb(11.817932%, 62.210083%, 82.673645%)" offset="0.246094"/><stop stop-opacity="1" stop-color="rgb(12.005615%, 61.978149%, 82.71637%)" offset="0.25"/><stop stop-opacity="1" stop-color="rgb(12.193298%, 61.74469%, 82.759094%)" offset="0.253906"/><stop stop-opacity="1" stop-color="rgb(12.380981%, 61.51123%, 82.801819%)" offset="0.257812"/><stop stop-opacity="1" stop-color="rgb(12.568665%, 61.277771%, 82.844543%)" offset="0.261719"/><stop stop-opacity="1" stop-color="rgb(12.756348%, 61.044312%, 82.887268%)" offset="0.265625"/><stop stop-opacity="1" stop-color="rgb(12.944031%, 60.810852%, 82.928467%)" offset="0.269531"/><stop stop-opacity="1" stop-color="rgb(13.131714%, 60.578918%, 82.971191%)" offset="0.273438"/><stop stop-opacity="1" stop-color="rgb(13.319397%, 60.345459%, 83.013916%)" offset="0.277344"/><stop stop-opacity="1" stop-color="rgb(13.50708%, 60.112%, 83.056641%)" offset="0.28125"/><stop stop-opacity="1" stop-color="rgb(13.694763%, 59.87854%, 83.099365%)" offset="0.285156"/><stop stop-opacity="1" stop-color="rgb(13.882446%, 59.646606%, 83.14209%)" offset="0.289062"/><stop stop-opacity="1" stop-color="rgb(14.070129%, 59.413147%, 83.183289%)" offset="0.292969"/><stop stop-opacity="1" stop-color="rgb(14.257812%, 59.179688%, 83.226013%)" offset="0.296875"/><stop stop-opacity="1" stop-color="rgb(14.44397%, 58.946228%, 83.268738%)" offset="0.300781"/><stop stop-opacity="1" stop-color="rgb(14.631653%, 58.712769%, 83.311462%)" offset="0.304688"/><stop stop-opacity="1" stop-color="rgb(14.819336%, 58.479309%, 83.354187%)" offset="0.308594"/><stop stop-opacity="1" stop-color="rgb(15.007019%, 58.247375%, 83.396912%)" offset="0.3125"/><stop stop-opacity="1" stop-color="rgb(15.194702%, 58.013916%, 83.43811%)" offset="0.316406"/><stop stop-opacity="1" stop-color="rgb(15.382385%, 57.780457%, 83.480835%)" offset="0.320312"/><stop stop-opacity="1" stop-color="rgb(15.570068%, 57.546997%, 83.52356%)" offset="0.324219"/><stop stop-opacity="1" stop-color="rgb(15.757751%, 57.315063%, 83.566284%)" offset="0.328125"/><stop stop-opacity="1" stop-color="rgb(15.945435%, 57.081604%, 83.607483%)" offset="0.332031"/><stop stop-opacity="1" stop-color="rgb(16.133118%, 56.848145%, 83.650208%)" offset="0.335938"/><stop stop-opacity="1" stop-color="rgb(16.320801%, 56.614685%, 83.692932%)" offset="0.339844"/><stop stop-opacity="1" stop-color="rgb(16.508484%, 56.381226%, 83.735657%)" offset="0.34375"/><stop stop-opacity="1" stop-color="rgb(16.696167%, 56.147766%, 83.778381%)" offset="0.347656"/><stop stop-opacity="1" stop-color="rgb(16.88385%, 55.915833%, 83.821106%)" offset="0.351562"/><stop stop-opacity="1" stop-color="rgb(17.071533%, 55.682373%, 83.862305%)" offset="0.355469"/><stop stop-opacity="1" stop-color="rgb(17.259216%, 55.448914%, 83.905029%)" offset="0.359375"/><stop stop-opacity="1" stop-color="rgb(17.446899%, 55.215454%, 83.947754%)" offset="0.363281"/><stop stop-opacity="1" stop-color="rgb(17.634583%, 54.983521%, 83.990479%)" offset="0.367188"/><stop stop-opacity="1" stop-color="rgb(17.822266%, 54.750061%, 84.033203%)" offset="0.371094"/><stop stop-opacity="1" stop-color="rgb(18.009949%, 54.516602%, 84.075928%)" offset="0.375"/><stop stop-opacity="1" stop-color="rgb(18.196106%, 54.283142%, 84.117126%)" offset="0.378906"/><stop stop-opacity="1" stop-color="rgb(18.383789%, 54.049683%, 84.159851%)" offset="0.382812"/><stop stop-opacity="1" stop-color="rgb(18.571472%, 53.816223%, 84.202576%)" offset="0.386719"/><stop stop-opacity="1" stop-color="rgb(18.759155%, 53.58429%, 84.2453%)" offset="0.390625"/><stop stop-opacity="1" stop-color="rgb(18.946838%, 53.35083%, 84.288025%)" offset="0.394531"/><stop stop-opacity="1" stop-color="rgb(19.134521%, 53.117371%, 84.33075%)" offset="0.398438"/><stop stop-opacity="1" stop-color="rgb(19.322205%, 52.883911%, 84.371948%)" offset="0.402344"/><stop stop-opacity="1" stop-color="rgb(19.509888%, 52.651978%, 84.414673%)" offset="0.40625"/><stop stop-opacity="1" stop-color="rgb(19.697571%, 52.418518%, 84.457397%)" offset="0.410156"/><stop stop-opacity="1" stop-color="rgb(19.885254%, 52.185059%, 84.500122%)" offset="0.414062"/><stop stop-opacity="1" stop-color="rgb(20.072937%, 51.951599%, 84.542847%)" offset="0.417969"/><stop stop-opacity="1" stop-color="rgb(20.26062%, 51.71814%, 84.585571%)" offset="0.421875"/><stop stop-opacity="1" stop-color="rgb(20.448303%, 51.48468%, 84.62677%)" offset="0.425781"/><stop stop-opacity="1" stop-color="rgb(20.635986%, 51.252747%, 84.669495%)" offset="0.429688"/><stop stop-opacity="1" stop-color="rgb(20.823669%, 51.019287%, 84.712219%)" offset="0.433594"/><stop stop-opacity="1" stop-color="rgb(21.011353%, 50.785828%, 84.754944%)" offset="0.4375"/><stop stop-opacity="1" stop-color="rgb(21.199036%, 50.552368%, 84.797668%)" offset="0.441406"/><stop stop-opacity="1" stop-color="rgb(21.386719%, 50.320435%, 84.840393%)" offset="0.445312"/><stop stop-opacity="1" stop-color="rgb(21.572876%, 50.086975%, 84.881592%)" offset="0.449219"/><stop stop-opacity="1" stop-color="rgb(21.760559%, 49.853516%, 84.924316%)" offset="0.453125"/><stop stop-opacity="1" stop-color="rgb(21.948242%, 49.620056%, 84.967041%)" offset="0.457031"/><stop stop-opacity="1" stop-color="rgb(22.135925%, 49.386597%, 85.009766%)" offset="0.460938"/><stop stop-opacity="1" stop-color="rgb(22.323608%, 49.153137%, 85.05249%)" offset="0.464844"/><stop stop-opacity="1" stop-color="rgb(22.511292%, 48.921204%, 85.095215%)" offset="0.46875"/><stop stop-opacity="1" stop-color="rgb(22.698975%, 48.687744%, 85.136414%)" offset="0.472656"/><stop stop-opacity="1" stop-color="rgb(22.886658%, 48.454285%, 85.179138%)" offset="0.476562"/><stop stop-opacity="1" stop-color="rgb(23.074341%, 48.220825%, 85.221863%)" offset="0.480469"/><stop stop-opacity="1" stop-color="rgb(23.262024%, 47.988892%, 85.264587%)" offset="0.484375"/><stop stop-opacity="1" stop-color="rgb(23.449707%, 47.755432%, 85.307312%)" offset="0.488281"/><stop stop-opacity="1" stop-color="rgb(23.63739%, 47.521973%, 85.350037%)" offset="0.492188"/><stop stop-opacity="1" stop-color="rgb(23.825073%, 47.288513%, 85.391235%)" offset="0.496094"/><stop stop-opacity="1" stop-color="rgb(24.012756%, 47.055054%, 85.43396%)" offset="0.5"/><stop stop-opacity="1" stop-color="rgb(24.200439%, 46.821594%, 85.476685%)" offset="0.503906"/><stop stop-opacity="1" stop-color="rgb(24.388123%, 46.589661%, 85.519409%)" offset="0.507812"/><stop stop-opacity="1" stop-color="rgb(24.575806%, 46.356201%, 85.562134%)" offset="0.511719"/><stop stop-opacity="1" stop-color="rgb(24.763489%, 46.122742%, 85.604858%)" offset="0.515625"/><stop stop-opacity="1" stop-color="rgb(24.951172%, 45.889282%, 85.646057%)" offset="0.519531"/><stop stop-opacity="1" stop-color="rgb(25.138855%, 45.657349%, 85.688782%)" offset="0.523438"/><stop stop-opacity="1" stop-color="rgb(25.325012%, 45.423889%, 85.731506%)" offset="0.527344"/><stop stop-opacity="1" stop-color="rgb(25.512695%, 45.19043%, 85.774231%)" offset="0.53125"/><stop stop-opacity="1" stop-color="rgb(25.700378%, 44.95697%, 85.816956%)" offset="0.535156"/><stop stop-opacity="1" stop-color="rgb(25.888062%, 44.723511%, 85.85968%)" offset="0.539062"/><stop stop-opacity="1" stop-color="rgb(26.075745%, 44.490051%, 85.900879%)" offset="0.542969"/><stop stop-opacity="1" stop-color="rgb(26.263428%, 44.258118%, 85.943604%)" offset="0.546875"/><stop stop-opacity="1" stop-color="rgb(26.451111%, 44.024658%, 85.986328%)" offset="0.550781"/><stop stop-opacity="1" stop-color="rgb(26.638794%, 43.791199%, 86.029053%)" offset="0.554688"/><stop stop-opacity="1" stop-color="rgb(26.826477%, 43.557739%, 86.070251%)" offset="0.558594"/><stop stop-opacity="1" stop-color="rgb(27.01416%, 43.325806%, 86.112976%)" offset="0.5625"/><stop stop-opacity="1" stop-color="rgb(27.201843%, 43.092346%, 86.155701%)" offset="0.566406"/><stop stop-opacity="1" stop-color="rgb(27.389526%, 42.858887%, 86.198425%)" offset="0.570313"/><stop stop-opacity="1" stop-color="rgb(27.577209%, 42.625427%, 86.24115%)" offset="0.574219"/><stop stop-opacity="1" stop-color="rgb(27.764893%, 42.391968%, 86.283875%)" offset="0.578125"/><stop stop-opacity="1" stop-color="rgb(27.952576%, 42.158508%, 86.325073%)" offset="0.582031"/><stop stop-opacity="1" stop-color="rgb(28.140259%, 41.926575%, 86.367798%)" offset="0.585938"/><stop stop-opacity="1" stop-color="rgb(28.327942%, 41.693115%, 86.410522%)" offset="0.589844"/><stop stop-opacity="1" stop-color="rgb(28.515625%, 41.459656%, 86.453247%)" offset="0.59375"/><stop stop-opacity="1" stop-color="rgb(28.701782%, 41.226196%, 86.495972%)" offset="0.597656"/><stop stop-opacity="1" stop-color="rgb(28.889465%, 40.994263%, 86.538696%)" offset="0.601562"/><stop stop-opacity="1" stop-color="rgb(29.077148%, 40.760803%, 86.579895%)" offset="0.605469"/><stop stop-opacity="1" stop-color="rgb(29.264832%, 40.527344%, 86.62262%)" offset="0.609375"/><stop stop-opacity="1" stop-color="rgb(29.452515%, 40.293884%, 86.665344%)" offset="0.613281"/><stop stop-opacity="1" stop-color="rgb(29.640198%, 40.060425%, 86.708069%)" offset="0.617188"/><stop stop-opacity="1" stop-color="rgb(29.827881%, 39.826965%, 86.750793%)" offset="0.621094"/><stop stop-opacity="1" stop-color="rgb(30.015564%, 39.595032%, 86.793518%)" offset="0.625"/><stop stop-opacity="1" stop-color="rgb(30.203247%, 39.361572%, 86.834717%)" offset="0.628906"/><stop stop-opacity="1" stop-color="rgb(30.39093%, 39.128113%, 86.877441%)" offset="0.632813"/><stop stop-opacity="1" stop-color="rgb(30.578613%, 38.894653%, 86.920166%)" offset="0.636719"/><stop stop-opacity="1" stop-color="rgb(30.766296%, 38.66272%, 86.962891%)" offset="0.640625"/><stop stop-opacity="1" stop-color="rgb(30.953979%, 38.42926%, 87.005615%)" offset="0.644531"/><stop stop-opacity="1" stop-color="rgb(31.141663%, 38.195801%, 87.04834%)" offset="0.648438"/><stop stop-opacity="1" stop-color="rgb(31.329346%, 37.962341%, 87.089539%)" offset="0.652344"/><stop stop-opacity="1" stop-color="rgb(31.517029%, 37.728882%, 87.132263%)" offset="0.65625"/><stop stop-opacity="1" stop-color="rgb(31.704712%, 37.495422%, 87.174988%)" offset="0.660156"/><stop stop-opacity="1" stop-color="rgb(31.892395%, 37.263489%, 87.217712%)" offset="0.664062"/><stop stop-opacity="1" stop-color="rgb(32.080078%, 37.030029%, 87.260437%)" offset="0.667969"/><stop stop-opacity="1" stop-color="rgb(32.267761%, 36.79657%, 87.303162%)" offset="0.671875"/><stop stop-opacity="1" stop-color="rgb(32.453918%, 36.56311%, 87.34436%)" offset="0.675781"/><stop stop-opacity="1" stop-color="rgb(32.641602%, 36.331177%, 87.387085%)" offset="0.679688"/><stop stop-opacity="1" stop-color="rgb(32.829285%, 36.097717%, 87.42981%)" offset="0.683594"/><stop stop-opacity="1" stop-color="rgb(33.016968%, 35.864258%, 87.472534%)" offset="0.6875"/><stop stop-opacity="1" stop-color="rgb(33.204651%, 35.630798%, 87.515259%)" offset="0.691406"/><stop stop-opacity="1" stop-color="rgb(33.392334%, 35.397339%, 87.557983%)" offset="0.695313"/><stop stop-opacity="1" stop-color="rgb(33.580017%, 35.163879%, 87.599182%)" offset="0.699219"/><stop stop-opacity="1" stop-color="rgb(33.7677%, 34.931946%, 87.641907%)" offset="0.703125"/><stop stop-opacity="1" stop-color="rgb(33.955383%, 34.698486%, 87.684631%)" offset="0.707031"/><stop stop-opacity="1" stop-color="rgb(34.143066%, 34.465027%, 87.727356%)" offset="0.710938"/><stop stop-opacity="1" stop-color="rgb(34.33075%, 34.231567%, 87.770081%)" offset="0.714844"/><stop stop-opacity="1" stop-color="rgb(34.518433%, 33.999634%, 87.812805%)" offset="0.71875"/><stop stop-opacity="1" stop-color="rgb(34.706116%, 33.766174%, 87.854004%)" offset="0.722656"/><stop stop-opacity="1" stop-color="rgb(34.893799%, 33.532715%, 87.896729%)" offset="0.726562"/><stop stop-opacity="1" stop-color="rgb(35.081482%, 33.299255%, 87.939453%)" offset="0.730469"/><stop stop-opacity="1" stop-color="rgb(35.269165%, 33.065796%, 87.982178%)" offset="0.734375"/><stop stop-opacity="1" stop-color="rgb(35.456848%, 32.832336%, 88.024902%)" offset="0.738281"/><stop stop-opacity="1" stop-color="rgb(35.644531%, 32.600403%, 88.067627%)" offset="0.742188"/><stop stop-opacity="1" stop-color="rgb(35.832214%, 32.366943%, 88.108826%)" offset="0.746094"/><stop stop-opacity="1" stop-color="rgb(36.019897%, 32.133484%, 88.15155%)" offset="0.75"/><stop stop-opacity="1" stop-color="rgb(36.206055%, 31.900024%, 88.194275%)" offset="0.753906"/><stop stop-opacity="1" stop-color="rgb(36.393738%, 31.668091%, 88.237%)" offset="0.757812"/><stop stop-opacity="1" stop-color="rgb(36.581421%, 31.434631%, 88.279724%)" offset="0.761719"/><stop stop-opacity="1" stop-color="rgb(36.769104%, 31.201172%, 88.322449%)" offset="0.765625"/><stop stop-opacity="1" stop-color="rgb(36.956787%, 30.967712%, 88.363647%)" offset="0.769531"/><stop stop-opacity="1" stop-color="rgb(37.14447%, 30.734253%, 88.406372%)" offset="0.773438"/><stop stop-opacity="1" stop-color="rgb(37.332153%, 30.500793%, 88.449097%)" offset="0.777344"/><stop stop-opacity="1" stop-color="rgb(37.519836%, 30.26886%, 88.491821%)" offset="0.78125"/><stop stop-opacity="1" stop-color="rgb(37.70752%, 30.0354%, 88.534546%)" offset="0.785156"/><stop stop-opacity="1" stop-color="rgb(37.895203%, 29.801941%, 88.577271%)" offset="0.789062"/><stop stop-opacity="1" stop-color="rgb(38.082886%, 29.568481%, 88.618469%)" offset="0.792969"/><stop stop-opacity="1" stop-color="rgb(38.270569%, 29.336548%, 88.661194%)" offset="0.796875"/><stop stop-opacity="1" stop-color="rgb(38.458252%, 29.103088%, 88.703918%)" offset="0.800781"/><stop stop-opacity="1" stop-color="rgb(38.645935%, 28.869629%, 88.746643%)" offset="0.804688"/><stop stop-opacity="1" stop-color="rgb(38.833618%, 28.636169%, 88.787842%)" offset="0.808594"/><stop stop-opacity="1" stop-color="rgb(39.021301%, 28.40271%, 88.830566%)" offset="0.8125"/><stop stop-opacity="1" stop-color="rgb(39.208984%, 28.16925%, 88.873291%)" offset="0.816406"/><stop stop-opacity="1" stop-color="rgb(39.396667%, 27.937317%, 88.916016%)" offset="0.820312"/><stop stop-opacity="1" stop-color="rgb(39.582825%, 27.703857%, 88.95874%)" offset="0.824219"/><stop stop-opacity="1" stop-color="rgb(39.770508%, 27.470398%, 89.001465%)" offset="0.828125"/><stop stop-opacity="1" stop-color="rgb(39.958191%, 27.236938%, 89.042664%)" offset="0.832031"/><stop stop-opacity="1" stop-color="rgb(40.145874%, 27.005005%, 89.085388%)" offset="0.835938"/><stop stop-opacity="1" stop-color="rgb(40.333557%, 26.771545%, 89.128113%)" offset="0.839844"/><stop stop-opacity="1" stop-color="rgb(40.52124%, 26.538086%, 89.170837%)" offset="0.84375"/><stop stop-opacity="1" stop-color="rgb(40.708923%, 26.304626%, 89.213562%)" offset="0.847656"/><stop stop-opacity="1" stop-color="rgb(40.896606%, 26.071167%, 89.256287%)" offset="0.851562"/><stop stop-opacity="1" stop-color="rgb(41.08429%, 25.837708%, 89.297485%)" offset="0.855469"/><stop stop-opacity="1" stop-color="rgb(41.271973%, 25.605774%, 89.34021%)" offset="0.859375"/><stop stop-opacity="1" stop-color="rgb(41.459656%, 25.372314%, 89.382935%)" offset="0.863281"/><stop stop-opacity="1" stop-color="rgb(41.647339%, 25.138855%, 89.425659%)" offset="0.867188"/><stop stop-opacity="1" stop-color="rgb(41.835022%, 24.905396%, 89.468384%)" offset="0.871094"/><stop stop-opacity="1" stop-color="rgb(42.022705%, 24.673462%, 89.511108%)" offset="0.875"/><stop stop-opacity="1" stop-color="rgb(42.210388%, 24.440002%, 89.552307%)" offset="0.878906"/><stop stop-opacity="1" stop-color="rgb(42.398071%, 24.206543%, 89.595032%)" offset="0.882812"/><stop stop-opacity="1" stop-color="rgb(42.585754%, 23.973083%, 89.637756%)" offset="0.886719"/><stop stop-opacity="1" stop-color="rgb(42.773438%, 23.739624%, 89.680481%)" offset="0.890625"/><stop stop-opacity="1" stop-color="rgb(42.961121%, 23.506165%, 89.723206%)" offset="0.894531"/><stop stop-opacity="1" stop-color="rgb(43.148804%, 23.274231%, 89.76593%)" offset="0.898438"/><stop stop-opacity="1" stop-color="rgb(43.334961%, 23.040771%, 89.807129%)" offset="0.902344"/><stop stop-opacity="1" stop-color="rgb(43.522644%, 22.807312%, 89.849854%)" offset="0.90625"/><stop stop-opacity="1" stop-color="rgb(43.710327%, 22.573853%, 89.892578%)" offset="0.910156"/><stop stop-opacity="1" stop-color="rgb(43.89801%, 22.341919%, 89.935303%)" offset="0.914062"/><stop stop-opacity="1" stop-color="rgb(44.085693%, 22.108459%, 89.978027%)" offset="0.917969"/><stop stop-opacity="1" stop-color="rgb(44.273376%, 21.875%, 90.020752%)" offset="0.921875"/><stop stop-opacity="1" stop-color="rgb(44.46106%, 21.641541%, 90.061951%)" offset="0.925781"/><stop stop-opacity="1" stop-color="rgb(44.648743%, 21.408081%, 90.104675%)" offset="0.929688"/><stop stop-opacity="1" stop-color="rgb(44.836426%, 21.174622%, 90.1474%)" offset="0.933594"/><stop stop-opacity="1" stop-color="rgb(45.024109%, 20.942688%, 90.190125%)" offset="0.9375"/><stop stop-opacity="1" stop-color="rgb(45.211792%, 20.709229%, 90.232849%)" offset="0.941406"/><stop stop-opacity="1" stop-color="rgb(45.399475%, 20.475769%, 90.275574%)" offset="0.945312"/><stop stop-opacity="1" stop-color="rgb(45.587158%, 20.24231%, 90.316772%)" offset="0.949219"/><stop stop-opacity="1" stop-color="rgb(45.774841%, 20.010376%, 90.359497%)" offset="0.953125"/><stop stop-opacity="1" stop-color="rgb(45.962524%, 19.776917%, 90.402222%)" offset="0.957031"/><stop stop-opacity="1" stop-color="rgb(46.150208%, 19.543457%, 90.444946%)" offset="0.960938"/><stop stop-opacity="1" stop-color="rgb(46.337891%, 19.309998%, 90.487671%)" offset="0.964844"/><stop stop-opacity="1" stop-color="rgb(46.525574%, 19.076538%, 90.530396%)" offset="0.96875"/><stop stop-opacity="1" stop-color="rgb(46.713257%, 18.843079%, 90.571594%)" offset="0.972656"/><stop stop-opacity="1" stop-color="rgb(46.90094%, 18.611145%, 90.614319%)" offset="0.976562"/><stop stop-opacity="1" stop-color="rgb(47.087097%, 18.377686%, 90.657043%)" offset="0.980469"/><stop stop-opacity="1" stop-color="rgb(47.27478%, 18.144226%, 90.699768%)" offset="0.984375"/><stop stop-opacity="1" stop-color="rgb(47.462463%, 17.910767%, 90.742493%)" offset="0.988281"/><stop stop-opacity="1" stop-color="rgb(47.650146%, 17.678833%, 90.785217%)" offset="0.992188"/><stop stop-opacity="1" stop-color="rgb(47.83783%, 17.445374%, 90.826416%)" offset="0.996094"/><stop stop-opacity="1" stop-color="rgb(48.025513%, 17.211914%, 90.869141%)" offset="1"/></linearGradient><clipPath id="727a42113a"><path d="M 132 50.140625 L 243 50.140625 L 243 185 L 132 185 Z M 132 50.140625 " clip-rule="nonzero"/></clipPath><clipPath id="837e6247f3"><path d="M 83.105469 285 L 84 285 L 84 287 L 83.105469 287 Z M 83.105469 285 " clip-rule="nonzero"/></clipPath><clipPath id="ff40e1d2af"><path d="M 291 286 L 291.605469 286 L 291.605469 289 L 291 289 Z M 291 286 " clip-rule="nonzero"/></clipPath><clipPath id="9d0e559f7b"><path d="M 83.105469 189 L 291.605469 189 L 291.605469 324.640625 L 83.105469 324.640625 Z M 83.105469 189 " clip-rule="nonzero"/></clipPath></defs><g clip-path="url(#41f6d6ae41)"><g clip-path="url(#72de9df78c)"><path fill="url(#07a51b695a)" d="M 14.660156 14.660156 L 14.660156 360.410156 L 360.410156 360.410156 L 360.410156 14.660156 Z M 14.660156 14.660156 " fill-rule="nonzero"/></g></g><g clip-path="url(#727a42113a)"><path fill="#ffffff" d="M 187.355469 184.386719 C 217.835938 184.386719 242.546875 154.359375 242.546875 117.3125 C 242.546875 80.269531 234.433594 50.238281 187.355469 50.238281 C 140.277344 50.238281 132.164062 80.269531 132.164062 117.3125 C 132.164062 154.359375 156.875 184.386719 187.355469 184.386719 Z M 187.355469 184.386719 " fill-opacity="1" fill-rule="nonzero"/></g><g clip-path="url(#837e6247f3)"><path fill="#ffffff" d="M 83.113281 286.800781 C 83.105469 284.542969 83.09375 286.164062 83.113281 286.800781 Z M 83.113281 286.800781 " fill-opacity="1" fill-rule="nonzero"/></g><g clip-path="url(#ff40e1d2af)"><path fill="#ffffff" d="M 291.589844 288.566406 C 291.621094 287.945312 291.601562 284.273438 291.589844 288.566406 Z M 291.589844 288.566406 " fill-opacity="1" fill-rule="nonzero"/></g><g clip-path="url(#9d0e559f7b)"><path fill="#ffffff" d="M 291.480469 284.097656 C 290.457031 219.566406 282.035156 201.183594 217.578125 189.535156 C 217.578125 189.535156 208.507812 201.105469 187.359375 201.105469 C 166.210938 201.105469 157.136719 189.535156 157.136719 189.535156 C 93.382812 201.050781 84.449219 219.164062 83.273438 281.996094 C 83.179688 287.128906 83.132812 287.398438 83.117188 286.800781 C 83.121094 287.917969 83.125 289.984375 83.125 293.582031 C 83.125 293.582031 98.46875 324.535156 187.359375 324.535156 C 276.25 324.535156 291.59375 293.582031 291.59375 293.582031 C 291.59375 291.269531 291.59375 289.660156 291.597656 288.566406 C 291.582031 288.9375 291.546875 288.222656 291.480469 284.09375 Z M 291.480469 284.097656 " fill-opacity="1" fill-rule="nonzero"/></g></svg>